<svg xmlns="http://www.w3.org/2000/svg" width="1183.605" height="151.197" viewBox="0 0 1183.605 151.197"><path fill="#EE3660" d="M48.685 0L0 47.686l103.513 103.512 103.511-103.51L158.338 0H48.685zM22.551 48.573l29.583-28.775 28.89 28.036L51.419 77.44 22.551 48.573zm43.687 44.843h74.545l-37.271 37.273-37.274-37.273zm89.724-15.178H72.191l30.493-30.493L69.79 15.527h83.479l32.766 32.635-30.073 30.076z"/><path fill="#414042" d="M337.758 77.67c3.651-5.256 5.479-11.08 5.479-17.485 0-8.466-3.032-15.71-9.086-21.767-6.057-6.057-13.314-9.074-21.775-9.074H266.02v92.638h15.363V91.149h26.184l17.9 30.832h17.771l-19.104-33.229c5.52-2.23 10.063-5.924 13.624-11.082zm-14.563-6.543c-3.026 3.029-6.631 4.539-10.818 4.539l-30.992-.143V44.826h30.992c4.188 0 7.792 1.51 10.818 4.547 3.03 3.021 4.542 6.623 4.542 10.812 0 4.266-1.512 7.917-4.542 10.942zm38.129 50.854h17.232l7.881-15.481h42.615l7.744 15.481h17.233l-46.354-92.639-46.351 92.639zm32.727-30.832l13.625-27.237 13.628 27.237h-27.253zm504.77-53.8c-5.254 5.259-7.885 11.574-7.885 18.962 0 7.557 2.631 13.965 7.885 19.213 5.252 5.256 11.619 7.879 19.104 7.879h23.111c3.203 0 5.922 1.16 8.146 3.469 2.316 2.318 3.477 5.033 3.477 8.143 0 1.607-.293 3.117-.865 4.548-.584 1.42-1.404 2.641-2.471 3.666a11.917 11.917 0 0 1-3.748 2.407 12.03 12.03 0 0 1-4.539.863h-50.1v15.482h50.1c7.484 0 13.854-2.623 19.104-7.883 5.346-5.338 8.014-11.689 8.014-19.086 0-7.469-2.668-13.83-8.014-19.075-5.25-5.259-11.617-7.884-19.104-7.884h-23.111c-3.291 0-6.055-1.157-8.281-3.469-2.227-2.318-3.342-5.076-3.342-8.275 0-1.51.299-2.983.869-4.411.58-1.42 1.402-2.67 2.473-3.738a11.343 11.343 0 0 1 3.738-2.473 12.234 12.234 0 0 1 4.543-.861h50.229V29.343h-50.229c-7.571 0-13.938 2.668-19.104 8.006zm138.835-8.006c-12.91 0-23.824 4.537-32.729 13.613-9.084 9.086-13.623 19.977-13.623 32.709 0 12.814 4.539 23.716 13.623 32.699 8.994 9.078 19.906 13.615 32.729 13.615 12.828 0 23.736-4.537 32.732-13.615 9.174-8.896 13.762-19.797 13.762-32.699 0-12.732-4.588-23.623-13.762-32.709-8.995-9.075-19.903-13.613-32.732-13.613zm21.778 68.214c-6.061 5.957-13.316 8.939-21.777 8.939s-15.762-2.982-21.908-8.939c-5.967-6.137-8.949-13.442-8.949-21.892 0-8.455 2.982-15.707 8.949-21.756 6.146-6.057 13.447-9.084 21.908-9.084s15.719 3.027 21.777 9.084c6.057 6.049 9.086 13.301 9.086 21.756 0 8.448-3.03 15.755-9.086 21.892zM511.29 83.403h23.242v12.681a31.313 31.313 0 0 1-10.352 7.684c-3.962 1.813-8.262 2.732-12.893 2.732-8.463 0-15.763-2.984-21.907-8.941-5.968-6.137-8.951-13.443-8.951-21.891 0-8.455 2.983-15.708 8.951-21.757 6.146-6.057 13.444-9.084 21.907-9.084 8.55 0 15.809 3.027 21.777 9.084l11.085-10.953c-4.275-4.27-9.217-7.602-14.829-10.012-5.608-2.398-11.621-3.603-18.033-3.603-12.825 0-23.732 4.537-32.729 13.613-9.088 9.086-13.627 19.978-13.627 32.709 0 12.814 4.539 23.715 13.627 32.699 8.994 9.078 19.9 13.615 32.729 13.615 4.009 0 7.881-.484 11.621-1.465 3.741-.98 7.26-2.381 10.556-4.205s6.348-4.025 9.149-6.605a50.604 50.604 0 0 0 7.417-8.545V68.055h-38.743l.003 15.348zm656.822-54.187v55.526l-61.717-55.526v92.63h15.365V66.455l61.846 55.526V29.216zM638.469 84.742L576.75 29.216v92.63h15.363V66.455l61.848 55.526V29.216h-15.492zm220.275-7.072c3.654-5.256 5.48-11.08 5.48-17.485 0-8.466-3.031-15.71-9.082-21.767-6.062-6.057-13.314-9.074-21.777-9.074h-46.354v92.638h15.359V91.149h26.184l17.898 30.832h17.771l-19.105-33.229c5.525-2.23 10.06-5.924 13.626-11.082zm-14.56-6.543c-3.033 3.029-6.641 4.539-10.82 4.539l-30.992-.143V44.826h30.992c4.182 0 7.787 1.51 10.82 4.547 3.027 3.021 4.541 6.623 4.541 10.812 0 4.266-1.514 7.917-4.541 10.942zm-171.545 50.854h17.23l7.881-15.481h42.617l7.75 15.481h17.232l-46.357-92.639-46.353 92.639zm31.236-30.832l13.627-27.237 13.625 27.237h-27.252z"/></svg>