<svg viewBox="0 0 245 33" xmlns="http://www.w3.org/2000/svg" fill-rule="evenodd" clip-rule="evenodd" stroke-linejoin="round" stroke-miterlimit="1.414"><path d="M61.647 20.486l-3.74-6.528h-5.576v6.528h-3.182V.934h9.84c1.805 0 3.314.656 4.593 1.936 1.28 1.28 1.936 2.788 1.936 4.592 0 1.378-.427 2.56-1.181 3.74-.755 1.083-1.706 1.804-2.887 2.362l4.068 7.053h-3.871v-.131zM58.859 3.92H52.33v6.528h6.528c.853 0 1.607-.328 2.23-.952.656-.656.952-1.377.952-2.362 0-.853-.328-1.607-.952-2.23-.525-.656-1.279-.984-2.23-.984zm24.373 12.924h-8.988l-1.706 3.314h-3.641L78.738.606l9.71 19.552h-3.641l-1.575-3.314zm-7.38-3.182h5.773L78.738 7.89l-2.887 5.773zM99.568.606c1.377 0 2.657.23 3.838.755 1.18.525 2.23 1.18 3.083 2.132l-2.362 2.362c-1.279-1.28-2.788-1.935-4.592-1.935-1.804 0-3.313.656-4.593 1.935-1.28 1.28-1.935 2.788-1.935 4.593 0 1.804.656 3.313 1.935 4.592 1.28 1.28 2.887 1.936 4.593 1.936.951 0 1.935-.23 2.657-.525.755-.328 1.607-.952 2.132-1.608v-2.657h-4.92V8.971h8.332v6.922a7.569 7.569 0 0 1-1.607 1.804c-.657.525-1.28.952-1.936 1.378-.754.427-1.378.656-2.23.853-.854.23-1.608.23-2.46.23-2.658 0-5.02-.952-6.955-2.887-1.936-1.936-2.887-4.166-2.887-6.955 0-2.657.951-5.019 2.887-6.954C94.68 1.558 96.912.606 99.569.606zm13.909 0l13.056 11.744V.606h3.313v19.552L116.692 8.414v11.744h-3.214V.606zm35.166 16.238h-8.989l-1.705 3.314h-3.642L144.15.606l9.71 19.552h-3.642l-1.574-3.314zm-7.381-3.182h5.773L144.15 7.89l-2.887 5.773zm29.819 6.496l-3.74-6.528h-5.544v6.528h-3.215V.606h9.842c1.804 0 3.313.656 4.592 1.936 1.28 1.28 1.936 2.788 1.936 4.592 0 1.378-.427 2.56-1.181 3.74-.755 1.083-1.706 1.804-2.887 2.362l4.068 7.053h-3.838v-.131h-.033zM168.293 3.92h-6.528v6.528h6.528c.853 0 1.608-.328 2.231-.952.656-.656.951-1.377.951-2.362 0-.853-.328-1.607-.95-2.23-.624-.656-1.346-.984-2.232-.984zm17.879 8.135c-1.608 0-2.887-.525-4.068-1.706-1.18-1.18-1.706-2.46-1.706-4.068 0-1.607.525-2.886 1.706-3.969 1.083-1.18 2.46-1.706 4.068-1.706h10.596V3.92h-10.596c-.328 0-.656.098-.952.23-.328.098-.524.327-.754.524-.23.23-.427.525-.525.755-.098.23-.23.524-.23.852 0 .657.23 1.28.755 1.706.426.525 1.082.755 1.706.755h4.92c1.608 0 2.887.525 4.068 1.706 1.181 1.082 1.706 2.46 1.706 4.067 0 1.608-.525 2.887-1.706 4.068-1.082 1.083-2.46 1.706-4.068 1.706h-10.595v-3.313h10.595c.328 0 .656-.099.952-.23.328-.098.525-.328.754-.525.23-.23.427-.426.525-.754.098-.328.23-.656.23-.952 0-.656-.23-1.279-.755-1.705-.426-.525-1.082-.755-1.706-.755h-4.92zM211.07.606c2.657 0 5.02.952 6.955 2.887 1.935 1.936 2.886 4.166 2.886 6.955 0 2.657-.95 5.019-2.886 6.954-1.936 1.936-4.166 2.887-6.955 2.887-2.657 0-5.019-.951-6.954-2.887-1.936-1.935-2.887-4.166-2.887-6.954 0-2.658.951-5.02 2.887-6.955C206.05 1.558 208.38.606 211.07.606zm0 3.314c-1.804 0-3.313.656-4.592 1.935-1.28 1.28-1.936 2.788-1.936 4.593 0 1.804.656 3.313 1.936 4.592 1.279 1.28 2.886 1.936 4.592 1.936 1.804 0 3.313-.656 4.593-1.936 1.28-1.28 1.935-2.887 1.935-4.592 0-1.706-.656-3.314-1.935-4.593-1.28-1.28-2.789-1.935-4.593-1.935zM226.554.606L239.61 12.35V.606h3.313v19.552L229.769 8.414v11.744h-3.215V.606zM50.526 29.474v2.23h-1.18V24.98h3.411c.656 0 1.181.23 1.607.656.427.426.657.951.657 1.607s-.23 1.181-.657 1.608c-.426.426-.95.656-1.607.656 0-.033-2.23-.033-2.23-.033zm0-3.412v2.231h2.231c.328 0 .525-.098.755-.328.23-.23.328-.525.328-.754 0-.328-.099-.525-.328-.853a1.104 1.104 0 0 0-.755-.328c0 .032-2.23.032-2.23.032zm13.68-1.082v1.18h-3.412v1.707h3.412v1.18h-3.412v1.706h3.412v1.181h-4.494V25.21h4.494v-.23zm9.283 6.725l-1.279-2.231h-1.903v2.23h-1.18V24.98h3.411c.656 0 1.181.23 1.607.656.427.426.657.951.657 1.607a2 2 0 0 1-.427 1.28c-.23.426-.656.656-.951.853l1.378 2.46h-1.28v-.131h-.033zm-.951-5.643h-2.23v2.231h2.23c.328 0 .525-.098.755-.328.23-.23.328-.525.328-.853 0-.328-.099-.525-.328-.754-.23-.197-.427-.296-.755-.296zm11.547-1.082v1.18h-3.412v2.232h3.412v1.18h-3.412v2.231h-1.18v-6.725h4.592v-.098zm9.71 0v1.18h-3.412v1.707h3.412v1.18h-3.412v1.706h3.412v1.181h-4.461V25.21h4.494v-.23h-.033zm8.136 0c.426 0 .852.098 1.279.23.426.23.754.426 1.082.754l-.754.853c-.426-.427-.951-.656-1.607-.656-.328 0-.657.098-.853.23-.328.098-.525.327-.755.524-.23.23-.328.427-.525.755-.098.328-.23.525-.23.853 0 .328.1.656.23.853.099.328.328.525.525.754.23.23.427.328.755.525.328.098.525.23.853.23.656 0 1.18-.23 1.607-.656l.853.754c-.328.328-.656.525-1.083.755-.426.23-.853.23-1.279.23-.426 0-.951-.1-1.28-.329-.426-.23-.754-.426-1.082-.754-.328-.328-.525-.656-.754-1.083a2.653 2.653 0 0 1 0-2.559c.23-.426.426-.754.754-1.082.328-.328.656-.525 1.083-.755.328-.328.754-.426 1.18-.426zm7.282 0h5.675v1.18h-2.263v5.676h-1.181V26.16h-2.23v-1.18zm20.175 4.494v2.23h-1.181V24.98h3.444c.656 0 1.181.23 1.608.656.426.426.656.951.656 1.607s-.23 1.181-.656 1.608a2.18 2.18 0 0 1-1.608.656c0-.033-2.263-.033-2.263-.033zm0-3.412v2.231h2.23c.328 0 .525-.098.755-.328.23-.23.328-.525.328-.754 0-.328-.098-.525-.328-.853a1.104 1.104 0 0 0-.755-.328c.033.032-2.23.032-2.23.032zm13.712 5.643l-1.28-2.231h-1.935v2.23h-1.18V24.98h3.41c.657 0 1.182.23 1.608.656.427.426.656.951.656 1.607a2 2 0 0 1-.426 1.28c-.23.426-.656.656-.952.853l1.378 2.46h-1.28v-.131zm-.984-5.643h-2.231v2.231h2.23c.329 0 .526-.098.755-.328.23-.23.328-.525.328-.853 0-.328-.098-.525-.328-.754-.098-.197-.426-.296-.754-.296zm10.694-1.082c.951 0 1.706.328 2.362.951.656.623.951 1.51.951 2.362 0 .951-.328 1.706-.951 2.362-.656.656-1.51.951-2.362.951-.951 0-1.706-.328-2.362-.951-.656-.656-.951-1.509-.951-2.362 0-.951.328-1.706.951-2.362.558-.623 1.41-.951 2.362-.951zm0 1.082a2.18 2.18 0 0 0-1.608.656 2.18 2.18 0 0 0-.656 1.608c0 .656.23 1.18.656 1.607.427.427.952.656 1.608.656.656 0 1.18-.23 1.607-.656.427-.426.656-.951.656-1.607s-.23-1.181-.656-1.608c-.525-.459-1.082-.656-1.607-.656zm11.744-1.082c.426 0 .951.098 1.28.23.327.098.754.426 1.082.754l-.853.853c-.427-.427-.952-.656-1.608-.656-.656 0-1.18.23-1.607.656-.426.426-.656.951-.656 1.607s.23 1.181.656 1.608c.426.426.951.656 1.607.656.328 0 .656-.099.952-.23.295-.131.525-.328.754-.525v-.951h-1.706v-1.181h2.887v2.46c-.098.23-.328.427-.525.656-.23.23-.426.328-.656.525-.23.099-.525.23-.754.328-.328.099-.525.099-.853.099-.952 0-1.706-.328-2.362-.952-.656-.656-.951-1.509-.951-2.361 0-.952.328-1.706.95-2.362.559-.886 1.411-1.214 2.363-1.214zm11.973 6.725l-1.279-2.231h-1.935v2.23h-1.181V24.98h3.411c.656 0 1.181.23 1.608.656.426.426.656.951.656 1.607a2 2 0 0 1-.427 1.28c-.23.426-.656.656-.951.853l1.378 2.46h-1.28v-.131zm-.951-5.643h-2.23v2.231h2.23c.328 0 .525-.098.755-.328.23-.23.328-.525.328-.853 0-.328-.099-.525-.328-.754-.23-.197-.427-.296-.755-.296zm12.072 4.593h-3.084l-.525 1.18h-1.279l3.412-6.724 3.411 6.725h-1.279l-.656-1.181zm-2.559-1.181h2.034l-.951-2.034-1.083 2.034zm10.596-1.804v4.068h-1.181v-6.725l3.412 3.411 3.411-3.411v6.725h-1.18V27.67l-2.231 2.23-2.231-2.23zm11.842 0v4.068h-1.18v-6.725l3.411 3.411 3.412-3.411v6.725h-1.149V27.67l-2.23 2.23-2.264-2.23zm14.959-2.69v1.18h-3.412v1.707h3.412v1.18h-3.412v1.706h3.412v1.181h-4.494V25.21h4.494v-.23zm9.415 6.725l-1.28-2.231h-1.935v2.23h-1.18V24.98h3.41c.657 0 1.182.23 1.608.656.427.426.656.951.656 1.607a2 2 0 0 1-.426 1.28c-.23.426-.656.656-.952.853l1.378 2.46h-1.28v-.131zm-.952-5.643h-2.23v2.231h2.23c.329 0 .525-.098.755-.328.23-.23.328-.525.328-.853 0-.328-.098-.525-.328-.754-.23-.197-.426-.296-.755-.296zm8.989 2.887c-.525 0-.951-.23-1.378-.525-.426-.426-.525-.853-.525-1.377 0-.525.23-.952.525-1.378.427-.427.853-.525 1.378-.525h3.641v1.18h-3.641c-.099 0-.23 0-.328.1-.099 0-.23.098-.328.229-.099.131-.099.23-.23.328 0 .098-.098.23-.098.328 0 .23.098.426.23.656.229.23.327.23.655.23h1.706c.525 0 .952.23 1.378.525.426.426.525.852.525 1.377s-.23.952-.525 1.378c-.426.427-.853.525-1.378.525h-3.641v-1.181h3.641c.099 0 .23 0 .328-.098.099 0 .23-.099.328-.23.099-.098.099-.23.23-.328 0-.098.098-.23.098-.328 0-.23-.098-.427-.23-.656-.229-.23-.327-.23-.655-.23h-1.706z" fill="#fff" fill-rule="nonzero"/><path d="M21.181 31.944L1.246 10.193v-.009L11.401.976h18.77l10.137 9.191-18.94 21.774-.187.003zm.048-3.501l7.814-8.983-16.128-.089 8.314 9.072zm-7.824-11.372l17.632.097 5.917-6.802-7.709-6.99H13.974l5.203 5.698 1.2 1.237-6.972 6.76zm-2.936-.369l6.655-6.452-5.606-6.14-6.876 6.236 5.827 6.356z" fill="#fff"/></svg>