<svg xmlns="http://www.w3.org/2000/svg" width="1363.572" height="174.438" viewBox="0 0 1363.572 174.438"><path fill="#414042" d="M119.228 174.285L-.001 55.058 56.077.133h126.298l56.077 54.927-119.224 119.225zM25.301 56.736l93.927 93.926 95.053-95.055-37.739-37.589H65.107L25.301 56.736z"/><path fill="#414042" d="M59.226 114.177L.173 55.127 59.772.14l2.372.011 56.131 54.977-59.049 59.049zM25.124 55.229L59.227 89.33l34.101-34.101-34.101-33.092-34.103 33.092z"/><path fill="#414042" d="M59.187 90.248H180.39v17.482H59.187zm315.693 16.463L354.262 71.2h-30.159v35.511h-17.696V.013h53.396c9.745 0 18.104 3.476 25.081 10.452 6.973 6.976 10.465 15.319 10.465 25.069 0 7.379-2.105 14.088-6.314 20.143-4.1 5.94-9.333 10.194-15.691 12.762l22.007 38.274h-20.469l-.002-.002zm-15.077-88.865h-35.7v35.356l35.7.164c4.823 0 8.975-1.739 12.46-5.228 3.491-3.485 5.229-7.689 5.229-12.605 0-4.823-1.739-8.974-5.229-12.451-3.485-3.499-7.637-5.236-12.46-5.236zm134.389 71.033h-49.085l-9.077 17.832h-19.848L469.57.013l53.396 106.698h-19.852l-8.922-17.832zm-40.316-17.68h31.39l-15.697-31.371-15.693 31.371zM588.916.013c7.386 0 14.31 1.386 20.771 4.147 6.465 2.776 12.156 6.614 17.081 11.532L614 28.309c-6.879-6.977-15.237-10.463-25.084-10.463-9.747 0-18.155 3.486-25.233 10.463-6.873 6.967-10.312 15.319-10.312 25.059 0 9.73 3.439 18.146 10.312 25.214 7.078 6.861 15.486 10.297 25.233 10.297 5.334 0 10.283-1.057 14.849-3.145a36.112 36.112 0 0 0 11.923-8.85V62.278h-26.771V44.6h44.625v38.132a58.267 58.267 0 0 1-8.543 9.84 54.378 54.378 0 0 1-10.539 7.609c-3.796 2.102-7.849 3.713-12.156 4.844-4.31 1.129-8.771 1.686-13.387 1.686-14.772 0-27.338-5.225-37.696-15.682-10.467-10.348-15.695-22.904-15.695-37.664 0-14.665 5.229-27.209 15.695-37.674C561.576 5.238 574.142.013 588.916.013zm75.398-.148l71.087 63.956V-.135h17.846v106.693-.146.299l-71.238-63.954v63.799h-17.694L664.314-.135zm188.458 89.014h-49.086l-9.078 17.832h-19.85L828.153.013l53.395 106.698H861.7l-8.928-17.832zm-42.035-17.68h31.391l-15.693-31.371-15.698 31.371zm164.225 35.512L954.345 71.2h-30.156v35.511h-17.695V.013h53.393c9.748 0 18.104 3.476 25.084 10.452 6.969 6.976 10.461 15.319 10.461 25.069 0 7.379-2.104 14.088-6.311 20.143-4.105 5.94-9.332 10.194-15.695 12.762l22.006 38.274h-20.469v-.002h-.001zm-15.078-88.865h-35.695v35.356l35.695.164c4.814 0 8.971-1.739 12.463-5.228 3.49-3.485 5.229-7.689 5.229-12.605 0-4.823-1.738-8.974-5.229-12.451-3.493-3.499-7.647-5.236-12.463-5.236zm97.398 44.432c-8.619 0-15.953-3.021-22.004-9.075-6.051-6.045-9.082-13.426-9.082-22.13 0-8.508 3.031-15.783 9.082-21.839 5.951-6.148 13.283-9.221 22.004-9.221h57.854v17.833h-57.854c-1.846 0-3.586.339-5.23.991a13.139 13.139 0 0 0-4.311 2.849 12.965 12.965 0 0 0-2.846 4.306 13.563 13.563 0 0 0-1.002 5.082c0 3.687 1.285 6.861 3.848 9.532 2.566 2.662 5.75 3.996 9.541 3.996h26.619c8.621 0 15.955 3.022 22.002 9.08 6.158 6.042 9.23 13.37 9.23 21.972 0 8.517-3.072 15.834-9.23 21.985-6.047 6.057-13.381 9.076-22.002 9.076h-57.705V88.883h57.705c1.848 0 3.588-.334 5.23-.994a13.702 13.702 0 0 0 4.312-2.774c1.229-1.182 2.174-2.587 2.848-4.224.658-1.646.996-3.387.996-5.237 0-3.581-1.334-6.708-4.006-9.379-2.561-2.659-5.689-3.995-9.383-3.995h-26.619v-.002h.003zM1195.194.013c14.773 0 27.34 5.226 37.701 15.68 10.566 10.465 15.85 23.009 15.85 37.674 0 14.861-5.283 27.417-15.85 37.665-10.361 10.457-22.928 15.682-37.701 15.682-14.77 0-27.34-5.225-37.701-15.682-10.463-10.349-15.689-22.905-15.689-37.665 0-14.665 5.229-27.209 15.689-37.674 10.258-10.455 22.83-15.68 37.701-15.68zm0 17.833c-9.746 0-18.156 3.486-25.234 10.463-6.873 6.967-10.309 15.319-10.309 25.059 0 9.73 3.438 18.146 10.309 25.214 7.078 6.861 15.488 10.297 25.234 10.297 9.744 0 18.104-3.437 25.082-10.297 6.977-7.067 10.465-15.483 10.465-25.214 0-9.738-3.488-18.092-10.465-25.059-6.978-6.978-15.338-10.463-25.082-10.463zm79.172-17.981l71.086 63.956V-.135h17.85v106.693-.146.299l-71.236-63.954v63.799h-17.697l-.003-106.691zM313.47 161.385v13.184h-6.562v-39.607h19.804c3.612 0 6.716 1.293 9.304 3.883 2.586 2.586 3.881 5.703 3.881 9.355 0 3.619-1.295 6.732-3.881 9.361-2.587 2.549-5.689 3.826-9.304 3.826l-13.242-.002zm0-19.807v13.182h13.24c1.787 0 3.327-.646 4.621-1.938 1.292-1.289 1.939-2.83 1.939-4.623 0-1.826-.648-3.383-1.939-4.678-1.294-1.293-2.834-1.941-4.621-1.941h-13.24v-.002zm77.929-6.619v6.619h-19.803v9.934h19.803v6.562h-19.803v9.875h19.803v6.621h-26.364v-39.609h26.364v-.002zm50.538 39.609l-7.647-13.184h-11.187v13.184h-6.562v-39.607h19.806c3.608 0 6.714 1.293 9.302 3.883 2.587 2.586 3.882 5.688 3.882 9.299 0 2.742-.782 5.232-2.342 7.479-1.523 2.207-3.462 3.783-5.82 4.734l8.162 14.213h-7.594v-.001zm-5.592-32.99h-13.242v13.123l13.242.059c1.788 0 3.327-.646 4.621-1.938 1.293-1.289 1.939-2.854 1.939-4.68 0-1.783-.646-3.326-1.939-4.621-1.294-1.295-2.833-1.943-4.621-1.943zm64.686-6.619v6.619h-19.804v13.125h19.804v6.684h-19.804v13.184h-6.562v-39.609h26.365l.001-.003zm51.504 0v6.619h-19.804v9.934h19.804v6.562h-19.804v9.875h19.804v6.621h-26.362v-39.609h26.362v-.002zm45.001 0c2.737 0 5.298.514 7.678 1.541a20.102 20.102 0 0 1 6.304 4.281l-4.678 4.68c-2.585-2.588-5.688-3.883-9.304-3.883-1.825 0-3.538.342-5.136 1.027a13.288 13.288 0 0 0-4.191 2.822c-1.2 1.201-2.15 2.6-2.856 4.199-.704 1.6-1.056 3.312-1.056 5.133 0 1.826.352 3.541 1.056 5.141a13.864 13.864 0 0 0 2.826 4.191c1.178 1.201 2.578 2.141 4.193 2.826 1.617.688 3.34 1.029 5.166 1.029 3.575 0 6.677-1.273 9.303-3.824l4.678 4.623a20.074 20.074 0 0 1-6.304 4.279c-2.379 1.027-4.939 1.543-7.678 1.543s-5.307-.525-7.706-1.57a20.612 20.612 0 0 1-6.308-4.252c-1.806-1.787-3.232-3.883-4.279-6.279-1.049-2.396-1.566-4.965-1.566-7.707 0-2.658.519-5.201 1.566-7.615 1.047-2.418 2.475-4.531 4.279-6.336a20.409 20.409 0 0 1 6.308-4.279c2.399-1.045 4.965-1.57 7.705-1.57zm39.122 0h33.044v6.619h-13.184v32.988h-6.623v-32.988h-13.238l.001-6.619zm113.427 26.426v13.184h-6.562v-39.607h19.803c3.613 0 6.717 1.293 9.303 3.883 2.588 2.586 3.881 5.703 3.881 9.355 0 3.619-1.293 6.732-3.881 9.361-2.586 2.549-5.689 3.826-9.303 3.826l-13.241-.002zm0-19.807v13.182h13.24c1.789 0 3.326-.646 4.623-1.938 1.293-1.289 1.939-2.83 1.939-4.623 0-1.826-.646-3.383-1.939-4.678-1.297-1.293-2.834-1.941-4.623-1.941h-13.24v-.002zm76.961 32.99l-7.648-13.184H808.21v13.184h-6.562v-39.607h19.803c3.611 0 6.715 1.293 9.305 3.883 2.588 2.586 3.881 5.688 3.881 9.299 0 2.742-.781 5.232-2.342 7.479-1.521 2.207-3.465 3.783-5.818 4.734l8.16 14.213h-7.591v-.001zm-5.594-32.99h-13.24v13.123l13.24.059c1.787 0 3.326-.646 4.621-1.938 1.293-1.289 1.941-2.854 1.941-4.68 0-1.783-.648-3.326-1.941-4.621-1.295-1.295-2.834-1.943-4.621-1.943zm56.408-6.619c5.48 0 10.139 1.941 13.982 5.822 3.92 3.877 5.879 8.541 5.879 13.98 0 5.52-1.959 10.182-5.879 13.984-3.844 3.881-8.504 5.822-13.982 5.822-5.48 0-10.141-1.941-13.98-5.822-3.883-3.842-5.82-8.504-5.82-13.984 0-5.439 1.938-10.104 5.82-13.98 3.8-3.879 8.464-5.822 13.98-5.822zm0 6.619c-3.615 0-6.734 1.293-9.357 3.883-2.553 2.588-3.824 5.689-3.824 9.299 0 3.619 1.271 6.738 3.824 9.361 2.623 2.553 5.744 3.824 9.357 3.824s6.715-1.271 9.303-3.824c2.588-2.623 3.883-5.742 3.883-9.361 0-3.609-1.295-6.711-3.883-9.299-2.59-2.59-5.69-3.883-9.303-3.883zm61.369-6.619c2.736 0 5.307.514 7.703 1.541a19.973 19.973 0 0 1 6.334 4.281l-4.734 4.68c-2.549-2.588-5.648-3.883-9.303-3.883-3.615 0-6.736 1.293-9.359 3.883-2.551 2.59-3.822 5.689-3.822 9.301 0 3.619 1.271 6.738 3.822 9.361 2.623 2.553 5.744 3.824 9.359 3.824 1.977 0 3.814-.393 5.506-1.17a13.402 13.402 0 0 0 4.424-3.279v-5.424h-9.93v-6.561h16.551v14.152a21.61 21.61 0 0 1-3.168 3.646 20.111 20.111 0 0 1-3.908 2.828 19.487 19.487 0 0 1-4.51 1.801 19.545 19.545 0 0 1-4.965.627c-5.48 0-10.141-1.941-13.982-5.822-3.881-3.842-5.818-8.504-5.818-13.984 0-5.439 1.938-10.104 5.818-13.98 3.842-3.879 8.5-5.822 13.982-5.822zm67.09 39.609l-7.648-13.184h-11.188v13.184h-6.561v-39.607h19.803c3.613 0 6.715 1.293 9.303 3.883 2.588 2.586 3.883 5.688 3.883 9.299 0 2.742-.781 5.232-2.344 7.479-1.521 2.207-3.463 3.783-5.818 4.734l8.162 14.213h-7.592v-.001zm-5.594-32.99h-13.242v13.123l13.242.059c1.789 0 3.328-.646 4.621-1.938 1.293-1.289 1.939-2.854 1.939-4.68 0-1.783-.646-3.326-1.939-4.621s-2.832-1.943-4.621-1.943zm62.102 26.369h-18.203l-3.365 6.621h-7.363l19.803-39.607 19.803 39.607h-7.359l-3.316-6.621zm-14.951-6.562h11.641l-5.82-11.645-5.821 11.645zm55.179-10.5v23.684h-6.562v-39.607l19.803 19.801 19.857-19.801v39.607h-6.676v-23.684l-13.184 13.236-13.238-13.236zm63.086 0v23.684h-6.562v-39.607l19.805 19.801 19.857-19.801v39.607h-6.676v-23.684l-13.184 13.236-13.24-13.236zm84.608-15.926v6.619h-19.805v9.934h19.805v6.562h-19.805v9.875h19.805v6.621h-26.363v-39.609h26.363v-.002zm50.531 39.609l-7.645-13.184h-11.182v13.184h-6.562v-39.607h19.803c3.611 0 6.715 1.293 9.303 3.883 2.592 2.586 3.883 5.688 3.883 9.299 0 2.742-.785 5.232-2.34 7.479-1.52 2.207-3.467 3.783-5.824 4.734l8.162 14.213h-7.598v-.001zm-5.588-32.99h-13.238v13.123l13.238.059c1.789 0 3.332-.646 4.627-1.938 1.281-1.289 1.938-2.854 1.938-4.68 0-1.783-.654-3.326-1.938-4.621-1.295-1.295-2.838-1.943-4.627-1.943zm46.41 16.496c-3.188 0-5.908-1.125-8.156-3.369-2.244-2.24-3.359-4.982-3.359-8.219 0-3.156 1.115-5.857 3.359-8.104 2.205-2.281 4.932-3.42 8.156-3.42h21.471v6.619h-21.471c-.682 0-1.326.123-1.936.373a4.71 4.71 0 0 0-1.596 1.057 4.545 4.545 0 0 0-1.053 1.594 4.91 4.91 0 0 0-.373 1.883c0 1.371.473 2.551 1.426 3.539.941.99 2.123 1.488 3.529 1.488h9.875c3.197 0 5.922 1.123 8.166 3.361 2.279 2.246 3.43 4.971 3.43 8.162 0 3.164-1.148 5.881-3.43 8.162-2.244 2.246-4.969 3.371-8.166 3.371h-21.395v-6.621h21.395c.682 0 1.336-.125 1.947-.373a5.096 5.096 0 0 0 1.594-1.023 4.554 4.554 0 0 0 1.057-1.572 5.074 5.074 0 0 0 .371-1.941c0-1.33-.496-2.486-1.479-3.479-.953-.988-2.113-1.484-3.488-1.484h-9.877v-.004h.003z"/></svg>