<?xml version="1.0" encoding="UTF-8" standalone="no"?>
<svg width="182px" height="19px" viewBox="0 0 182 19" version="1.1" xmlns="http://www.w3.org/2000/svg" xmlns:xlink="http://www.w3.org/1999/xlink" xmlns:sketch="http://www.bohemiancoding.com/sketch/ns">
    <title>Untitled 3</title>
    <description>Created with Sketch (http://www.bohemiancoding.com/sketch)</description>
    <defs></defs>
    <g id="Page-1" stroke="none" stroke-width="1" fill="none" fill-rule="evenodd" sketch:type="MSPage">
        <g id="brand" sketch:type="MSLayerGroup" transform="translate(0.000000, 1.000000)" fill="#FFFFFF">
            <g id="Page-1" sketch:type="MSShapeGroup">
                <path d="M11.8112209,18 L8.27445307,11.9076923 L3.10127029,11.9076923 L3.10127029,18 L0.0659844742,18 L0.0659844742,-0.303296703 L9.22462954,-0.303296703 C10.8962445,-0.303296703 12.3302928,0.294499517 13.5268172,1.49010989 C14.7233416,2.68572027 15.321595,4.11867297 15.321595,5.78901099 C15.321595,7.05495139 14.9608834,8.2065882 14.2394495,9.24395606 C13.5356117,10.2637413 12.6382318,10.9934044 11.547283,11.432967 L15.321595,18 L11.8112209,18 L11.8112209,18 Z M9.22462954,2.75604396 L3.10127029,2.75604396 L3.10127029,8.82197803 L9.22462954,8.84835163 C10.051639,8.84835163 10.7642643,8.54945357 11.3625264,7.95164837 C11.9607887,7.35384316 12.2599153,6.63297125 12.2599153,5.78901099 C12.2599153,4.96263323 11.9607887,4.25055244 11.3625264,3.65274725 C10.7642643,3.05494207 10.051639,2.75604396 9.22462954,2.75604396 L9.22462954,2.75604396 Z M31.9820042,14.9406593 L23.5623853,14.9406593 L22.0051517,18 L18.6003528,18 L27.7589979,-0.303296703 L36.9176429,18 L33.512844,18 L31.9820042,14.9406593 L31.9820042,14.9406593 Z M25.0668314,11.9076923 L30.4511644,11.9076923 L27.7589979,6.52747253 L25.0668314,11.9076923 L25.0668314,11.9076923 Z M47.3461539,-0.303296703 C48.6130621,-0.303296703 49.8007708,-0.0659364394 50.9093154,0.408791211 C52.0178602,0.883518857 52.9944207,1.54285293 53.8390261,2.38681318 L51.6483416,4.54945055 C50.4694131,3.35384018 49.0353648,2.75604396 47.3461539,2.75604396 C45.6745388,2.75604396 44.2316927,3.35384018 43.0175723,4.54945055 C41.8386438,5.74506093 41.2491884,7.17801363 41.2491884,8.84835163 C41.2491884,10.5186897 41.8386438,11.9604335 43.0175723,13.1736264 C44.2316927,14.3516542 45.6745388,14.9406593 47.3461539,14.9406593 C48.2611431,14.9406593 49.1101349,14.7604413 49.8931546,14.4 C50.6761742,14.0395587 51.358007,13.5340692 51.9386732,12.8835165 L51.9386732,10.378022 L47.3461539,10.378022 L47.3461539,7.34505495 L55.0003528,7.34505495 L55.0003528,13.8857143 C54.5780501,14.501102 54.0897699,15.0637337 53.5354975,15.5736264 C52.9812251,16.083519 52.378573,16.5186795 51.7275229,16.8791209 C51.0764728,17.2395622 50.3814433,17.5164825 49.6424136,17.7098901 C48.9033837,17.9032977 48.1379715,18 47.3461539,18 C44.8123374,18 42.6568661,17.1033057 40.8796754,15.3098901 C39.0848887,13.534057 38.1875088,11.3802324 38.1875088,8.84835163 C38.1875088,6.33405336 39.0848887,4.18022875 40.8796754,2.38681318 C42.6568661,0.593397626 44.8123374,-0.303296703 47.3461539,-0.303296703 L47.3461539,-0.303296703 Z M60.2791108,-0.32967033 L72.4730417,10.6417582 L72.4730417,-0.32967033 L75.5347213,-0.32967033 L75.5347213,17.9736264 L75.5347213,17.9472527 L75.5347213,18 L63.3143966,7.02857143 L63.3143966,17.9736264 L60.2791108,17.9736264 L60.2791108,-0.32967033 L60.2791108,-0.32967033 Z M93.1951303,14.9406593 L84.7755119,14.9406593 L83.218278,18 L79.8134792,18 L88.9721239,-0.303296703 L98.1307688,18 L94.7259706,18 L93.1951303,14.9406593 L93.1951303,14.9406593 Z M86.2799578,11.9076923 L91.6642908,11.9076923 L88.9721239,6.52747253 L86.2799578,11.9076923 L86.2799578,11.9076923 Z M114.154763,18 L110.617995,11.9076923 L105.444813,11.9076923 L105.444813,18 L102.409528,18 L102.409528,-0.303296703 L111.568172,-0.303296703 C113.239787,-0.303296703 114.673836,0.294499517 115.87036,1.49010989 C117.066884,2.68572027 117.665138,4.11867297 117.665138,5.78901099 C117.665138,7.05495139 117.304426,8.2065882 116.582993,9.24395606 C115.879155,10.2637413 114.981774,10.9934044 113.890826,11.432967 L117.665138,18 L114.154763,18 L114.154763,18 Z M111.568172,2.75604396 L105.444813,2.75604396 L105.444813,8.82197803 L111.568172,8.84835163 C112.395182,8.84835163 113.107807,8.54945357 113.706069,7.95164837 C114.304332,7.35384316 114.603458,6.63297125 114.603458,5.78901099 C114.603458,4.96263323 114.304332,4.25055244 113.706069,3.65274725 C113.107807,3.05494207 112.395182,2.75604396 111.568172,2.75604396 L111.568172,2.75604396 Z M128.275441,10.378022 C126.797381,10.378022 125.53929,9.85934589 124.501129,8.82197803 C123.462968,7.78461017 122.943895,6.51868879 122.943895,5.02417582 C122.943895,3.56482787 123.462968,2.3164887 124.501129,1.27912088 C125.521694,0.224170551 126.779785,-0.303296703 128.275441,-0.303296703 L138.199506,-0.303296703 L138.199506,2.75604396 L128.275441,2.75604396 C127.958714,2.75604396 127.659588,2.81318625 127.378052,2.92747253 C127.096517,3.04175882 126.850178,3.20439455 126.639026,3.41538461 C126.427874,3.62637468 126.265115,3.87252607 126.150741,4.15384616 C126.036368,4.43516625 125.979182,4.72527323 125.979182,5.02417582 C125.979182,5.65714602 126.199127,6.20219552 126.639026,6.65934066 C127.078925,7.1164858 127.624391,7.34505495 128.275441,7.34505495 L132.841567,7.34505495 C134.319626,7.34505495 135.577718,7.86373106 136.615879,8.90109891 C137.671635,9.93846669 138.199506,11.195597 138.199506,12.6725275 C138.199506,14.1318754 137.671635,15.3890057 136.615879,16.4439561 C135.577718,17.4813238 134.319626,18 132.841567,18 L122.943895,18 L122.943895,14.9406593 L132.841567,14.9406593 C133.158293,14.9406593 133.457421,14.883517 133.738956,14.7692307 C134.02049,14.6549445 134.26683,14.4967043 134.477982,14.2945055 C134.689133,14.0923067 134.851893,13.8505509 134.966267,13.5692307 C135.080641,13.2879107 135.137827,12.9890126 135.137827,12.6725275 C135.137827,12.0571398 134.909083,11.5208814 134.451588,11.0637363 C134.011689,10.6065911 133.475021,10.378022 132.841567,10.378022 L128.275441,10.378022 L128.275441,10.378022 Z M151.636909,-0.303296703 C154.170726,-0.303296703 156.326197,0.593397626 158.103387,2.38681318 C159.91577,4.18022875 160.821948,6.33405336 160.821948,8.84835163 C160.821948,11.397815 159.91577,13.5516396 158.103387,15.3098901 C156.326197,17.1033057 154.170726,18 151.636909,18 C149.103093,18 146.947621,17.1033057 145.17043,15.3098901 C143.375644,13.534057 142.478264,11.3802324 142.478264,8.84835163 C142.478264,6.33405336 143.375644,4.18022875 145.17043,2.38681318 C146.930026,0.593397626 149.085497,-0.303296703 151.636909,-0.303296703 L151.636909,-0.303296703 Z M151.636909,2.75604396 C149.965294,2.75604396 148.522448,3.35384018 147.308328,4.54945055 C146.129399,5.74506093 145.539943,7.17801363 145.539943,8.84835163 C145.539943,10.5186897 146.129399,11.9604335 147.308328,13.1736264 C148.522448,14.3516542 149.965294,14.9406593 151.636909,14.9406593 C153.308524,14.9406593 154.742573,14.3516542 155.939096,13.1736264 C157.135621,11.9604335 157.733874,10.5186897 157.733874,8.84835163 C157.733874,7.17801363 157.135621,5.74506093 155.939096,4.54945055 C154.742573,3.35384018 153.308524,2.75604396 151.636909,2.75604396 L151.636909,2.75604396 Z M166.100706,-0.32967033 L178.294637,10.6417582 L178.294637,-0.32967033 L181.356316,-0.32967033 L181.356316,17.9736264 L181.356316,17.9472527 L181.356316,18 L169.135992,7.02857143 L169.135992,17.9736264 L166.100706,17.9736264 L166.100706,-0.32967033 L166.100706,-0.32967033 Z" id="Ragnarson"></path>
            </g>
        </g>
    </g>
</svg>
