<svg xmlns="http://www.w3.org/2000/svg" viewBox="1.5 374.4 592.7 94.5" enable-background="new 1.5 374.4 592.7 94.5"><title>Untitled 3</title><path d="M39.6 434l-11.4-19.9h-17V434H1.5v-59.6h30c5.5 0 10.1 2 14 5.9s5.9 8.5 5.9 14c0 4.2-1.3 7.8-3.6 11.4-2.3 3.3-5.2 5.5-8.8 7.2l12.4 21.5H39.6v-.4zm-8.5-50.5H11.2v19.9h19.9c2.6 0 4.9-1 6.8-2.9 2-2 2.9-4.2 2.9-7.2 0-2.6-1-4.9-2.9-6.8-1.6-2-3.9-3-6.8-3zm74.3 39.4H78L72.8 433H61.7l30-59.6 29.6 59.6h-11.1l-4.8-10.1zm-22.5-9.7h17.6l-8.8-17.6-8.8 17.6zm72.3-39.8c4.2 0 8.1.7 11.7 2.3s6.8 3.6 9.4 6.5l-7.2 7.2c-3.9-3.9-8.5-5.9-14-5.9s-10.1 2-14 5.9c-3.9 3.9-5.9 8.5-5.9 14s2 10.1 5.9 14c3.9 3.9 8.8 5.9 14 5.9 2.9 0 5.9-.7 8.1-1.6 2.3-1 4.9-2.9 6.5-4.9v-8.1h-15v-9.8h25.4V420c-1.3 2-2.9 3.9-4.9 5.5s-3.9 2.9-5.9 4.2c-2.3 1.3-4.2 2-6.8 2.6-2.6.7-4.9.7-7.5.7-8.1 0-15.3-2.9-21.2-8.8-5.9-5.9-8.8-12.7-8.8-21.2 0-8.1 2.9-15.3 8.8-21.2 6.5-5.5 13.3-8.4 21.4-8.4zm42.4 0l39.8 35.8v-35.8h10.1V433l-40.1-35.8V433h-9.8v-59.6zm107.2 49.5h-27.4l-5.2 10.1h-11.1l30-59.6 29.6 59.6h-11.1l-4.8-10.1zm-22.5-9.7h17.6l-8.8-17.6-8.8 17.6zm90.9 19.8l-11.4-19.9h-16.9V433h-9.8v-59.6h30c5.5 0 10.1 2 14 5.9 3.9 3.9 5.9 8.5 5.9 14 0 4.2-1.3 7.8-3.6 11.4-2.3 3.3-5.2 5.5-8.8 7.2l12.4 21.5h-11.7v-.4zm-8.5-49.5h-19.9v19.9h19.9c2.6 0 4.9-1 6.8-2.9 2-2 2.9-4.2 2.9-7.2 0-2.6-1-4.9-2.9-6.8-1.9-2-4.1-3-6.8-3zm54.5 24.8c-4.9 0-8.8-1.6-12.4-5.2s-5.2-7.5-5.2-12.4 1.6-8.8 5.2-12.1c3.3-3.6 7.5-5.2 12.4-5.2h32.3v10.1h-32.3c-1 0-2 .3-2.9.7-1 .3-1.6 1-2.3 1.6-.7.7-1.3 1.6-1.6 2.3-.3.7-.7 1.6-.7 2.6 0 2 .7 3.9 2.3 5.2 1.3 1.6 3.3 2.3 5.2 2.3h15c4.9 0 8.8 1.6 12.4 5.2 3.6 3.3 5.2 7.5 5.2 12.4s-1.6 8.8-5.2 12.4c-3.3 3.3-7.5 5.2-12.4 5.2h-32.3v-10.1h32.3c1 0 2-.3 2.9-.7 1-.3 1.6-1 2.3-1.6.7-.7 1.3-1.3 1.6-2.3.3-1 .7-2 .7-2.9 0-2-.7-3.9-2.3-5.2-1.3-1.6-3.3-2.3-5.2-2.3h-15zm75.9-34.9c8.1 0 15.3 2.9 21.2 8.8 5.9 5.9 8.8 12.7 8.8 21.2 0 8.1-2.9 15.3-8.8 21.2-5.9 5.9-12.7 8.8-21.2 8.8-8.1 0-15.3-2.9-21.2-8.8-5.9-5.9-8.8-12.7-8.8-21.2 0-8.1 2.9-15.3 8.8-21.2 5.9-5.9 13-8.8 21.2-8.8zm0 10.1c-5.5 0-10.1 2-14 5.9s-5.9 8.5-5.9 14 2 10.1 5.9 14 8.8 5.9 14 5.9c5.5 0 10.1-2 14-5.9 3.9-3.9 5.9-8.8 5.9-14 0-5.2-2-10.1-5.9-14-3.9-3.9-8.5-5.9-14-5.9zm47.2-10.1l39.8 35.8v-35.8h10.1V433l-40.1-35.8V433h-9.8v-59.6z" fill="#fff"/><g fill="#fff"><path d="M5.7 461.4v6.8H2.1v-20.5h10.4c2 0 3.6.7 4.9 2 1.3 1.3 2 2.9 2 4.9 0 2-.7 3.6-2 4.9-1.3 1.3-2.9 2-4.9 2 0-.1-6.8-.1-6.8-.1zm0-10.4v6.8h6.8c1 0 1.6-.3 2.3-1 .7-.7 1-1.6 1-2.3 0-1-.3-1.6-1-2.6-.7-.7-1.6-1-2.3-1 0 .1-6.8.1-6.8.1z"/><path d="M47.4 447.7v3.6H37v5.2h10.4v3.6H37v5.2h10.4v3.6H33.7v-20.5h13.7v-.7z"/><path d="M75.7 468.2l-3.9-6.8H66v6.8h-3.6v-20.5h10.4c2 0 3.6.7 4.9 2 1.3 1.3 2 2.9 2 4.9 0 1.3-.3 2.6-1.3 3.9-.7 1.3-2 2-2.9 2.6l4.2 7.5h-3.9v-.4zM72.8 451H66v6.8h6.8c1 0 1.6-.3 2.3-1 .7-.7 1-1.6 1-2.6s-.3-1.6-1-2.3c-.7-.6-1.3-.9-2.3-.9z"/><path d="M108 447.7v3.6H97.6v6.8H108v3.6H97.6v6.8H94V448h14v-.3z"/><path d="M137.6 447.7v3.6h-10.4v5.2h10.4v3.6h-10.4v5.2h10.4v3.6H124v-20.5h13.7v-.7z"/><path d="M162.4 447.7c1.3 0 2.6.3 3.9.7 1.3.7 2.3 1.3 3.3 2.3l-2.3 2.6c-1.3-1.3-2.9-2-4.9-2-1 0-2 .3-2.6.7-1 .3-1.6 1-2.3 1.6-.7.7-1 1.3-1.6 2.3-.3 1-.7 1.6-.7 2.6s.3 2 .7 2.6c.3 1 1 1.6 1.6 2.3.7.7 1.3 1 2.3 1.6 1 .3 1.6.7 2.6.7 2 0 3.6-.7 4.9-2l2.6 2.3c-1 1-2 1.6-3.3 2.3-1.3.7-2.6.7-3.9.7s-2.9-.3-3.9-1c-1.3-.7-2.3-1.3-3.3-2.3-1-1-1.6-2-2.3-3.3-.7-1.3-1-2.6-1-3.9 0-1.3.3-2.6 1-3.9.7-1.3 1.3-2.3 2.3-3.3 1-1 2-1.6 3.3-2.3 1-1 2.3-1.3 3.6-1.3z"/><path d="M184.6 447.7h17.3v3.6H195v17.3h-3.6v-17.3h-6.8v-3.6z"/></g><g fill="#fff"><path d="M246.1 461.4v6.8h-3.6v-20.5H253c2 0 3.6.7 4.9 2 1.3 1.3 2 2.9 2 4.9 0 2-.7 3.6-2 4.9-1.3 1.3-2.9 2-4.9 2 0-.1-6.9-.1-6.9-.1zm0-10.4v6.8h6.8c1 0 1.6-.3 2.3-1 .7-.7 1-1.6 1-2.3 0-1-.3-1.6-1-2.6-.7-.7-1.6-1-2.3-1 .1.1-6.8.1-6.8.1z"/><path d="M287.9 468.2l-3.9-6.8h-5.9v6.8h-3.6v-20.5h10.4c2 0 3.6.7 4.9 2 1.3 1.3 2 2.9 2 4.9 0 1.3-.3 2.6-1.3 3.9-.7 1.3-2 2-2.9 2.6l4.2 7.5h-3.9v-.4zm-3-17.2h-6.8v6.8h6.8c1 0 1.6-.3 2.3-1 .7-.7 1-1.6 1-2.6s-.3-1.6-1-2.3c-.3-.6-1.3-.9-2.3-.9z"/><path d="M317.5 447.7c2.9 0 5.2 1 7.2 2.9s2.9 4.6 2.9 7.2c0 2.9-1 5.2-2.9 7.2-2 2-4.6 2.9-7.2 2.9-2.9 0-5.2-1-7.2-2.9-2-2-2.9-4.6-2.9-7.2 0-2.9 1-5.2 2.9-7.2 1.7-1.9 4.3-2.9 7.2-2.9zm0 3.3c-2 0-3.6.7-4.9 2-1.3 1.3-2 2.9-2 4.9 0 2 .7 3.6 2 4.9 1.3 1.3 2.9 2 4.9 2 2 0 3.6-.7 4.9-2 1.3-1.3 2-2.9 2-4.9 0-2-.7-3.6-2-4.9-1.6-1.4-3.3-2-4.9-2z"/><path d="M353.3 447.7c1.3 0 2.9.3 3.9.7 1 .3 2.3 1.3 3.3 2.3l-2.6 2.6c-1.3-1.3-2.9-2-4.9-2-2 0-3.6.7-4.9 2-1.3 1.3-2 2.9-2 4.9 0 2 .7 3.6 2 4.9 1.3 1.3 2.9 2 4.9 2 1 0 2-.3 2.9-.7s1.6-1 2.3-1.6v-2.9H353v-3.6h8.8v7.5c-.3.7-1 1.3-1.6 2-.7.7-1.3 1-2 1.6-.7.3-1.6.7-2.3 1-1 .3-1.6.3-2.6.3-2.9 0-5.2-1-7.2-2.9-2-2-2.9-4.6-2.9-7.2 0-2.9 1-5.2 2.9-7.2 1.7-2.7 4.3-3.7 7.2-3.7z"/><path d="M389.8 468.2l-3.9-6.8H380v6.8h-3.6v-20.5h10.4c2 0 3.6.7 4.9 2 1.3 1.3 2 2.9 2 4.9 0 1.3-.3 2.6-1.3 3.9-.7 1.3-2 2-2.9 2.6l4.2 7.5h-3.9v-.4zm-2.9-17.2h-6.8v6.8h6.8c1 0 1.6-.3 2.3-1 .7-.7 1-1.6 1-2.6s-.3-1.6-1-2.3c-.7-.6-1.3-.9-2.3-.9z"/><path d="M423.7 465h-9.4l-1.6 3.6h-3.9l10.4-20.5 10.4 20.5h-3.9l-2-3.6zm-7.8-3.6h6.2l-2.9-6.2-3.3 6.2z"/><path d="M448.2 455.9v12.4h-3.6v-20.5l10.4 10.4 10.4-10.4v20.5h-3.6v-12.4l-6.8 6.8-6.8-6.8z"/><path d="M484.3 455.9v12.4h-3.6v-20.5l10.4 10.4 10.4-10.4v20.5H498v-12.4l-6.8 6.8-6.9-6.8z"/><path d="M529.9 447.7v3.6h-10.4v5.2h10.4v3.6h-10.4v5.2h10.4v3.6h-13.7v-20.5h13.7v-.7z"/><path d="M558.6 468.2l-3.9-6.8h-5.9v6.8h-3.6v-20.5h10.4c2 0 3.6.7 4.9 2 1.3 1.3 2 2.9 2 4.9 0 1.3-.3 2.6-1.3 3.9-.7 1.3-2 2-2.9 2.6l4.2 7.5h-3.9v-.4zm-2.9-17.2h-6.8v6.8h6.8c1 0 1.6-.3 2.3-1 .7-.7 1-1.6 1-2.6s-.3-1.6-1-2.3c-.7-.6-1.3-.9-2.3-.9z"/><path d="M583.1 459.8c-1.6 0-2.9-.7-4.2-1.6-1.3-1.3-1.6-2.6-1.6-4.2s.7-2.9 1.6-4.2c1.3-1.3 2.6-1.6 4.2-1.6h11.1v3.6h-11.1c-.3 0-.7 0-1 .3-.3 0-.7.3-1 .7s-.3.7-.7 1c0 .3-.3.7-.3 1 0 .7.3 1.3.7 2 .7.7 1 .7 2 .7h5.2c1.6 0 2.9.7 4.2 1.6 1.3 1.3 1.6 2.6 1.6 4.2s-.7 2.9-1.6 4.2c-1.3 1.3-2.6 1.6-4.2 1.6h-11.1v-3.6H588c.3 0 .7 0 1-.3.3 0 .7-.3 1-.7.3-.3.3-.7.7-1 0-.3.3-.7.3-1 0-.7-.3-1.3-.7-2-.7-.7-1-.7-2-.7h-5.2z"/></g></svg>