<?xml version="1.0" encoding="UTF-8" standalone="no"?>
<!-- Generator: Adobe Illustrator 18.0.0, SVG Export Plug-In . SVG Version: 6.00 Build 0)  -->

<svg
   xmlns:sketch="http://www.bohemiancoding.com/sketch/ns"
   xmlns:dc="http://purl.org/dc/elements/1.1/"
   xmlns:cc="http://creativecommons.org/ns#"
   xmlns:rdf="http://www.w3.org/1999/02/22-rdf-syntax-ns#"
   xmlns:svg="http://www.w3.org/2000/svg"
   xmlns="http://www.w3.org/2000/svg"
   xmlns:sodipodi="http://sodipodi.sourceforge.net/DTD/sodipodi-0.dtd"
   xmlns:inkscape="http://www.inkscape.org/namespaces/inkscape"
   version="1.1"
   id="Layer_1"
   x="0px"
   y="0px"
   viewBox="1.5 374.4 592.7 94.5"
   enable-background="new 1.5 374.4 592.7 94.5"
   xml:space="preserve"
   inkscape:version="0.48.4 r9939"
   width="100%"
   height="100%"
   sodipodi:docname="ragnarson6.svg"><metadata
     id="metadata55"><rdf:RDF><cc:Work
         rdf:about=""><dc:format>image/svg+xml</dc:format><dc:type
           rdf:resource="http://purl.org/dc/dcmitype/StillImage" /><dc:title>Untitled 3</dc:title></cc:Work></rdf:RDF></metadata><defs
     id="defs53" /><sodipodi:namedview
     pagecolor="#ffffff"
     bordercolor="#666666"
     borderopacity="1"
     objecttolerance="10"
     gridtolerance="10"
     guidetolerance="10"
     inkscape:pageopacity="0"
     inkscape:pageshadow="2"
     inkscape:window-width="640"
     inkscape:window-height="480"
     id="namedview51"
     showgrid="false"
     inkscape:zoom="0.60570272"
     inkscape:cx="296.35"
     inkscape:cy="47.25"
     inkscape:window-x="59"
     inkscape:window-y="34"
     inkscape:window-maximized="0"
     inkscape:current-layer="Layer_1" /><title
     id="title3">Untitled 3</title><description
     id="description5">Created with Sketch (http://www.bohemiancoding.com/sketch)</description><g
     id="Page-1_1_"
     sketch:type="MSPage"
     style="fill:#ffffff"><g
       id="brand"
       transform="translate(0.000000, 1.000000)"
       sketch:type="MSLayerGroup"
       style="fill:#ffffff"><g
         id="Page-1"
         sketch:type="MSShapeGroup"
         style="fill:#ffffff"><path
           id="Ragnarson"
           d="M39.6,433l-11.4-19.9H11.2V433H1.5v-59.6h30c5.5,0,10.1,2,14,5.9s5.9,8.5,5.9,14c0,4.2-1.3,7.8-3.6,11.4     c-2.3,3.3-5.2,5.5-8.8,7.2l12.4,21.5H39.6V433z M31.1,383.5H11.2v19.9h19.9c2.6,0,4.9-1,6.8-2.9c2-2,2.9-4.2,2.9-7.2     c0-2.6-1-4.9-2.9-6.8C36.3,384.5,34,383.5,31.1,383.5L31.1,383.5z M105.4,422.9H78L72.8,433H61.7l30-59.6l29.6,59.6h-11.1     L105.4,422.9L105.4,422.9z M82.9,413.2h17.6l-8.8-17.6L82.9,413.2L82.9,413.2z M155.2,373.4c4.2,0,8.1,0.7,11.7,2.3     s6.8,3.6,9.4,6.5l-7.2,7.2c-3.9-3.9-8.5-5.9-14-5.9c-5.5,0-10.1,2-14,5.9c-3.9,3.9-5.9,8.5-5.9,14s2,10.1,5.9,14     c3.9,3.9,8.8,5.9,14,5.9c2.9,0,5.9-0.7,8.1-1.6c2.3-1,4.9-2.9,6.5-4.9v-8.1h-15v-9.8h25.4V420c-1.3,2-2.9,3.9-4.9,5.5     s-3.9,2.9-5.9,4.2c-2.3,1.3-4.2,2-6.8,2.6c-2.6,0.7-4.9,0.7-7.5,0.7c-8.1,0-15.3-2.9-21.2-8.8c-5.9-5.9-8.8-12.7-8.8-21.2     c0-8.1,2.9-15.3,8.8-21.2C140.3,376.3,147.1,373.4,155.2,373.4L155.2,373.4z M197.6,373.4l39.8,35.8v-35.8h10.1V433l0,0l0,0     l-40.1-35.8V433h-9.8V373.4L197.6,373.4z M304.8,422.9h-27.4l-5.2,10.1h-11.1l30-59.6l29.6,59.6h-11.1L304.8,422.9L304.8,422.9z      M282.3,413.2h17.6l-8.8-17.6L282.3,413.2L282.3,413.2z M373.2,433l-11.4-19.9h-16.9V433h-9.8v-59.6h30c5.5,0,10.1,2,14,5.9     c3.9,3.9,5.9,8.5,5.9,14c0,4.2-1.3,7.8-3.6,11.4c-2.3,3.3-5.2,5.5-8.8,7.2l12.4,21.5h-11.7V433z M364.7,383.5h-19.9v19.9h19.9     c2.6,0,4.9-1,6.8-2.9c2-2,2.9-4.2,2.9-7.2c0-2.6-1-4.9-2.9-6.8C369.6,384.5,367.4,383.5,364.7,383.5L364.7,383.5z M419.2,408.3     c-4.9,0-8.8-1.6-12.4-5.2s-5.2-7.5-5.2-12.4c0-4.9,1.6-8.8,5.2-12.1c3.3-3.6,7.5-5.2,12.4-5.2h32.3v10.1h-32.3     c-1,0-2,0.3-2.9,0.7c-1,0.3-1.6,1-2.3,1.6c-0.7,0.7-1.3,1.6-1.6,2.3c-0.3,0.7-0.7,1.6-0.7,2.6c0,2,0.7,3.9,2.3,5.2     c1.3,1.6,3.3,2.3,5.2,2.3h15c4.9,0,8.8,1.6,12.4,5.2c3.6,3.3,5.2,7.5,5.2,12.4s-1.6,8.8-5.2,12.4c-3.3,3.3-7.5,5.2-12.4,5.2     h-32.3v-10.1h32.3c1,0,2-0.3,2.9-0.7c1-0.3,1.6-1,2.3-1.6c0.7-0.7,1.3-1.3,1.6-2.3c0.3-1,0.7-2,0.7-2.9c0-2-0.7-3.9-2.3-5.2     c-1.3-1.6-3.3-2.3-5.2-2.3H419.2L419.2,408.3z M495.1,373.4c8.1,0,15.3,2.9,21.2,8.8c5.9,5.9,8.8,12.7,8.8,21.2     c0,8.1-2.9,15.3-8.8,21.2c-5.9,5.9-12.7,8.8-21.2,8.8c-8.1,0-15.3-2.9-21.2-8.8c-5.9-5.9-8.8-12.7-8.8-21.2     c0-8.1,2.9-15.3,8.8-21.2C479.8,376.3,486.9,373.4,495.1,373.4L495.1,373.4z M495.1,383.5c-5.5,0-10.1,2-14,5.9s-5.9,8.5-5.9,14     s2,10.1,5.9,14s8.8,5.9,14,5.9c5.5,0,10.1-2,14-5.9c3.9-3.9,5.9-8.8,5.9-14c0-5.2-2-10.1-5.9-14     C505.2,385.5,500.6,383.5,495.1,383.5L495.1,383.5z M542.3,373.4l39.8,35.8v-35.8h10.1V433l0,0l0,0l-40.1-35.8V433h-9.8V373.4     L542.3,373.4z"
           style="fill:#ffffff" /></g></g></g><g
     id="g11"
     style="fill:#ffffff"><path
       d="M5.7,461.4v6.8H2.1v-20.5h10.4c2,0,3.6,0.7,4.9,2c1.3,1.3,2,2.9,2,4.9c0,2-0.7,3.6-2,4.9c-1.3,1.3-2.9,2-4.9,2   C12.5,461.4,5.7,461.4,5.7,461.4z M5.7,451v6.8h6.8c1,0,1.6-0.3,2.3-1c0.7-0.7,1-1.6,1-2.3c0-1-0.3-1.6-1-2.6c-0.7-0.7-1.6-1-2.3-1   C12.5,451,5.7,451,5.7,451z"
       id="path13"
       style="fill:#ffffff" /><path
       d="M47.4,447.7v3.6H37v5.2h10.4v3.6H37v5.2h10.4v3.6H33.7v-20.5h13.7V447.7z"
       id="path15"
       style="fill:#ffffff" /><path
       d="M75.7,468.2l-3.9-6.8H66v6.8h-3.6v-20.5h10.4c2,0,3.6,0.7,4.9,2c1.3,1.3,2,2.9,2,4.9c0,1.3-0.3,2.6-1.3,3.9   c-0.7,1.3-2,2-2.9,2.6l4.2,7.5h-3.9V468.2z M72.8,451H66v6.8h6.8c1,0,1.6-0.3,2.3-1c0.7-0.7,1-1.6,1-2.6s-0.3-1.6-1-2.3   C74.4,451.3,73.8,451,72.8,451z"
       id="path17"
       style="fill:#ffffff" /><path
       d="M108,447.7v3.6H97.6v6.8H108v3.6H97.6v6.8H94V448h14V447.7z"
       id="path19"
       style="fill:#ffffff" /><path
       d="M137.6,447.7v3.6h-10.4v5.2h10.4v3.6h-10.4v5.2h10.4v3.6H124v-20.5h13.7V447.7z"
       id="path21"
       style="fill:#ffffff" /><path
       d="M162.4,447.7c1.3,0,2.6,0.3,3.9,0.7c1.3,0.7,2.3,1.3,3.3,2.3l-2.3,2.6c-1.3-1.3-2.9-2-4.9-2c-1,0-2,0.3-2.6,0.7   c-1,0.3-1.6,1-2.3,1.6c-0.7,0.7-1,1.3-1.6,2.3c-0.3,1-0.7,1.6-0.7,2.6c0,1,0.3,2,0.7,2.6c0.3,1,1,1.6,1.6,2.3   c0.7,0.7,1.3,1,2.3,1.6c1,0.3,1.6,0.7,2.6,0.7c2,0,3.6-0.7,4.9-2l2.6,2.3c-1,1-2,1.6-3.3,2.3c-1.3,0.7-2.6,0.7-3.9,0.7   s-2.9-0.3-3.9-1c-1.3-0.7-2.3-1.3-3.3-2.3c-1-1-1.6-2-2.3-3.3c-0.7-1.3-1-2.6-1-3.9c0-1.3,0.3-2.6,1-3.9c0.7-1.3,1.3-2.3,2.3-3.3   c1-1,2-1.6,3.3-2.3C159.8,448,161.1,447.7,162.4,447.7z"
       id="path23"
       style="fill:#ffffff" /><path
       d="M184.6,447.7h17.3v3.6H195v17.3h-3.6v-17.3h-6.8L184.6,447.7L184.6,447.7z"
       id="path25"
       style="fill:#ffffff" /></g><g
     id="g27"
     style="fill:#ffffff"><path
       d="M246.1,461.4v6.8h-3.6v-20.5H253c2,0,3.6,0.7,4.9,2c1.3,1.3,2,2.9,2,4.9c0,2-0.7,3.6-2,4.9c-1.3,1.3-2.9,2-4.9,2   C253,461.4,246.1,461.4,246.1,461.4z M246.1,451v6.8h6.8c1,0,1.6-0.3,2.3-1c0.7-0.7,1-1.6,1-2.3c0-1-0.3-1.6-1-2.6   c-0.7-0.7-1.6-1-2.3-1C253,451,246.1,451,246.1,451z"
       id="path29"
       style="fill:#ffffff" /><path
       d="M287.9,468.2l-3.9-6.8h-5.9v6.8h-3.6v-20.5h10.4c2,0,3.6,0.7,4.9,2c1.3,1.3,2,2.9,2,4.9c0,1.3-0.3,2.6-1.3,3.9   c-0.7,1.3-2,2-2.9,2.6l4.2,7.5h-3.9V468.2z M284.9,451h-6.8v6.8h6.8c1,0,1.6-0.3,2.3-1c0.7-0.7,1-1.6,1-2.6s-0.3-1.6-1-2.3   C286.9,451.3,285.9,451,284.9,451z"
       id="path31"
       style="fill:#ffffff" /><path
       d="M317.5,447.7c2.9,0,5.2,1,7.2,2.9s2.9,4.6,2.9,7.2c0,2.9-1,5.2-2.9,7.2c-2,2-4.6,2.9-7.2,2.9c-2.9,0-5.2-1-7.2-2.9   c-2-2-2.9-4.6-2.9-7.2c0-2.9,1-5.2,2.9-7.2C312,448.7,314.6,447.7,317.5,447.7z M317.5,451c-2,0-3.6,0.7-4.9,2   c-1.3,1.3-2,2.9-2,4.9c0,2,0.7,3.6,2,4.9c1.3,1.3,2.9,2,4.9,2c2,0,3.6-0.7,4.9-2c1.3-1.3,2-2.9,2-4.9c0-2-0.7-3.6-2-4.9   C320.8,451.6,319.1,451,317.5,451z"
       id="path33"
       style="fill:#ffffff" /><path
       d="M353.3,447.7c1.3,0,2.9,0.3,3.9,0.7c1,0.3,2.3,1.3,3.3,2.3l-2.6,2.6c-1.3-1.3-2.9-2-4.9-2c-2,0-3.6,0.7-4.9,2   c-1.3,1.3-2,2.9-2,4.9c0,2,0.7,3.6,2,4.9c1.3,1.3,2.9,2,4.9,2c1,0,2-0.3,2.9-0.7s1.6-1,2.3-1.6v-2.9H353v-3.6h8.8v7.5   c-0.3,0.7-1,1.3-1.6,2c-0.7,0.7-1.3,1-2,1.6c-0.7,0.3-1.6,0.7-2.3,1c-1,0.3-1.6,0.3-2.6,0.3c-2.9,0-5.2-1-7.2-2.9   c-2-2-2.9-4.6-2.9-7.2c0-2.9,1-5.2,2.9-7.2C347.8,448.7,350.4,447.7,353.3,447.7z"
       id="path35"
       style="fill:#ffffff" /><path
       d="M389.8,468.2l-3.9-6.8h-5.9v6.8h-3.6v-20.5h10.4c2,0,3.6,0.7,4.9,2c1.3,1.3,2,2.9,2,4.9c0,1.3-0.3,2.6-1.3,3.9   c-0.7,1.3-2,2-2.9,2.6l4.2,7.5h-3.9V468.2z M386.9,451h-6.8v6.8h6.8c1,0,1.6-0.3,2.3-1c0.7-0.7,1-1.6,1-2.6s-0.3-1.6-1-2.3   C388.5,451.3,387.9,451,386.9,451z"
       id="path37"
       style="fill:#ffffff" /><path
       d="M423.7,465h-9.4l-1.6,3.6h-3.9l10.4-20.5l10.4,20.5h-3.9L423.7,465z M415.9,461.4h6.2l-2.9-6.2L415.9,461.4z"
       id="path39"
       style="fill:#ffffff" /><path
       d="M448.2,455.9v12.4h-3.6v-20.5l10.4,10.4l10.4-10.4v20.5h-3.6v-12.4l-6.8,6.8L448.2,455.9z"
       id="path41"
       style="fill:#ffffff" /><path
       d="M484.3,455.9v12.4h-3.6v-20.5l10.4,10.4l10.4-10.4v20.5H498v-12.4l-6.8,6.8L484.3,455.9z"
       id="path43"
       style="fill:#ffffff" /><path
       d="M529.9,447.7v3.6h-10.4v5.2h10.4v3.6h-10.4v5.2h10.4v3.6h-13.7v-20.5h13.7V447.7z"
       id="path45"
       style="fill:#ffffff" /><path
       d="M558.6,468.2l-3.9-6.8h-5.9v6.8h-3.6v-20.5h10.4c2,0,3.6,0.7,4.9,2c1.3,1.3,2,2.9,2,4.9c0,1.3-0.3,2.6-1.3,3.9   c-0.7,1.3-2,2-2.9,2.6l4.2,7.5h-3.9V468.2z M555.7,451h-6.8v6.8h6.8c1,0,1.6-0.3,2.3-1c0.7-0.7,1-1.6,1-2.6s-0.3-1.6-1-2.3   C557.3,451.3,556.7,451,555.7,451z"
       id="path47"
       style="fill:#ffffff" /><path
       d="M583.1,459.8c-1.6,0-2.9-0.7-4.2-1.6c-1.3-1.3-1.6-2.6-1.6-4.2s0.7-2.9,1.6-4.2c1.3-1.3,2.6-1.6,4.2-1.6h11.1v3.6h-11.1   c-0.3,0-0.7,0-1,0.3c-0.3,0-0.7,0.3-1,0.7s-0.3,0.7-0.7,1c0,0.3-0.3,0.7-0.3,1c0,0.7,0.3,1.3,0.7,2c0.7,0.7,1,0.7,2,0.7h5.2   c1.6,0,2.9,0.7,4.2,1.6c1.3,1.3,1.6,2.6,1.6,4.2s-0.7,2.9-1.6,4.2c-1.3,1.3-2.6,1.6-4.2,1.6h-11.1v-3.6h11.1c0.3,0,0.7,0,1-0.3   c0.3,0,0.7-0.3,1-0.7c0.3-0.3,0.3-0.7,0.7-1c0-0.3,0.3-0.7,0.3-1c0-0.7-0.3-1.3-0.7-2c-0.7-0.7-1-0.7-2-0.7H583.1z"
       id="path49"
       style="fill:#ffffff" /></g></svg>