<?xml version="1.0" encoding="UTF-8" standalone="no"?>
<svg width="32px" height="32px" viewBox="0 0 32 32" version="1.1" xmlns="http://www.w3.org/2000/svg" xmlns:xlink="http://www.w3.org/1999/xlink" xmlns:sketch="http://www.bohemiancoding.com/sketch/ns">
    <!-- Generator: Sketch 3.0 (7573) - http://www.bohemiancoding.com/sketch -->
    <title>Untitled</title>
    <description>Created with Sketch.</description>
    <defs></defs>
    <g id="Page-1" stroke="none" stroke-width="1" fill="none" fill-rule="evenodd" sketch:type="MSPage">
        <path d="M8.95927184,20.4320425 C8.95927184,20.4849357 8.89876699,20.5276541 8.82420388,20.5276541 C8.74956311,20.5276541 8.68913592,20.484858 8.68913592,20.4320425 C8.68913592,20.3789939 8.74956311,20.3361978 8.82420388,20.3361978 C8.89876699,20.3361978 8.95927184,20.3789939 8.95927184,20.4320425 L8.95927184,20.4320425 Z M9.14575728,20.6506833 C9.05853398,20.6506833 8.9877767,20.7009357 8.9877767,20.7626833 C8.9877767,20.8245862 9.05853398,20.8747609 9.14575728,20.8747609 C9.23290291,20.8747609 9.30358252,20.8245862 9.30358252,20.7626833 C9.30366019,20.7010133 9.23290291,20.6506833 9.14575728,20.6506833 L9.14575728,20.6506833 Z M9.91002913,21.388625 C9.80230097,21.388625 9.71492233,21.4506833 9.71492233,21.5270328 C9.71492233,21.60346 9.80230097,21.6652852 9.91002913,21.6652852 C10.0176796,21.6652852 10.1050583,21.60346 10.1050583,21.5270328 C10.1050583,21.4506833 10.0176796,21.388625 9.91002913,21.388625 L9.91002913,21.388625 Z M8.1671165,19.869091 C8.10987379,19.869091 8.06342718,19.9020231 8.06342718,19.9426444 C8.06342718,19.9831104 8.10987379,20.0160425 8.1671165,20.0160425 C8.22435922,20.0160425 8.27080583,19.9831104 8.27080583,19.9426444 C8.27080583,19.9020231 8.22435922,19.869091 8.1671165,19.869091 L8.1671165,19.869091 Z M8.4933301,20.0752269 C8.42971845,20.0752269 8.37806796,20.1118871 8.37806796,20.1570133 C8.37806796,20.2020619 8.42971845,20.2386444 8.4933301,20.2386444 C8.55678641,20.2386444 8.60843689,20.2020619 8.60843689,20.1570133 C8.60843689,20.1118871 8.55678641,20.0752269 8.4933301,20.0752269 L8.4933301,20.0752269 Z M9.49993204,21.0180619 C9.403,21.0180619 9.32439806,21.0739066 9.32439806,21.1426444 C9.32439806,21.2115376 9.403,21.2672269 9.49993204,21.2672269 C9.59686408,21.2672269 9.67554369,21.2115376 9.67554369,21.1426444 C9.67554369,21.0739066 9.59686408,21.0180619 9.49993204,21.0180619 L9.49993204,21.0180619 Z M31.875,16.140625 C31.875,24.9772075 24.7115825,32.140625 15.875,32.140625 C7.03841748,32.140625 -0.125,24.9772075 -0.125,16.140625 C-0.125,7.30404248 7.03841748,0.140625 15.875,0.140625 C24.7115825,0.140625 31.875,7.30404248 31.875,16.140625 L31.875,16.140625 Z M23.6343786,16.9836541 C23.6812913,16.8779454 23.7277379,16.771693 23.7678932,16.6600813 C25.0200097,16.5596541 26.3099515,16.5695182 27.6075049,16.6955765 L27.6280874,16.4819842 C26.3477767,16.3577124 25.0742233,16.3466833 23.8371748,16.4411299 C24.0360097,15.8065667 24.1407864,15.0898289 24.1332524,14.2746833 C24.1169417,12.5431104 23.5395437,11.1944502 22.6322039,10.0752269 C22.8064175,9.02101335 22.6751553,7.96679976 22.346301,6.91219782 C21.0496796,7.01837257 19.8826893,7.44299393 18.8436214,8.18078034 C16.9017184,7.78683859 14.9600485,7.76175121 13.018068,8.18078034 C11.8061068,7.36276092 10.6158932,6.96159587 9.44408738,6.91219782 C9.09674757,8.07344053 9.04323301,9.21806189 9.33690291,10.3434211 C8.31461165,11.428159 7.92393204,12.7449745 7.9431165,14.2030716 C7.95406796,15.03779 8.08261165,15.7805473 8.31997087,16.4372464 C7.10101942,16.3478483 5.84812621,16.3598095 4.58800971,16.4819066 L4.6086699,16.6954988 C5.89185437,16.5709163 7.16766019,16.5606638 8.4068835,16.6575959 C8.45239806,16.7678871 8.49814563,16.8778677 8.55041748,16.9828774 C7.20773786,16.94746 5.99934951,17.0641201 4.86769903,17.3424114 L4.91872816,17.5505667 C6.06731068,17.2683143 7.29775728,17.1546056 8.67150485,17.2008968 C9.58000971,18.8149551 11.3289806,19.7633823 13.8758544,20.0643532 C13.284165,20.5449745 12.9660291,21.1118095 12.8840874,21.7532852 L11.5351942,21.7532852 C9.72362136,21.7532852 9.22971845,19.44346 7.35336893,19.6712658 C9.17371845,20.5740231 8.81014563,23.45946 11.723,23.45946 L12.946767,23.45946 L12.946767,26.1044308 C12.9597379,26.5318483 12.7736408,26.8176735 12.4731359,27.0157318 C13.5163204,27.1209745 14.3002427,26.6001978 14.3002427,25.9614405 L14.3002427,22.4652075 C14.3002427,22.1537512 14.6263786,22.1296735 14.6263786,22.1296735 L14.6263786,26.2116153 C14.6402039,26.6178289 14.442767,26.8487415 14.2332136,27.0694017 C15.1522816,27.1060619 16.0167476,26.9224502 16.0558932,26.1403143 L16.0558932,22.2335959 C16.0558932,22.0372464 16.377835,22.0323532 16.377835,22.2335959 L16.377835,25.9569357 C16.3873107,26.6168192 16.9572524,27.1518095 18.1647087,27.069324 C17.8416796,26.8092852 17.7424951,26.5465279 17.7424951,26.1661784 L17.7424951,22.1295959 C17.7424951,22.1295959 18.0753107,22.1125862 18.0753107,22.4651299 L18.0753107,25.8697124 C18.0753107,26.62746 18.9849029,26.9400813 20.0230388,26.9106444 C19.6829223,26.6558871 19.4527087,26.3520425 19.4513107,25.9456735 L19.4513107,21.8513046 C19.4162039,21.2495182 19.171466,20.6821396 18.6917767,20.1535959 C21.019932,19.7960813 22.6979126,18.8668386 23.5334854,17.2011299 C24.9117379,17.1538289 26.1459126,17.2672269 27.2974466,17.5503337 L27.3485534,17.3421784 C26.2080485,17.0620231 24.9897184,16.9455182 23.6343786,16.9836541 L23.6343786,16.9836541 Z M12.5918932,21.9766638 C12.4722816,21.9766638 12.3751942,22.0457124 12.3751942,22.1305279 C12.3751942,22.2153434 12.4722816,22.2842367 12.5918932,22.2842367 C12.7115825,22.2842367 12.8085922,22.2153434 12.8085922,22.1305279 C12.8085922,22.0457124 12.7115825,21.9766638 12.5918932,21.9766638 L12.5918932,21.9766638 Z M11.8766311,21.9627609 C11.7569417,21.9627609 11.6600097,22.0317318 11.6600097,22.116625 C11.6600097,22.2014405 11.7569417,22.2703337 11.8766311,22.2703337 C11.9962427,22.2703337 12.0933301,22.2014405 12.0933301,22.116625 C12.0933301,22.0317318 11.9962427,21.9627609 11.8766311,21.9627609 L11.8766311,21.9627609 Z M11.1518932,21.9393823 C11.0322816,21.9393823 10.9351942,22.0083532 10.9351942,22.0932464 C10.9351942,22.1780619 11.0322816,22.2469551 11.1518932,22.2469551 C11.2716602,22.2469551 11.3685922,22.1780619 11.3685922,22.0932464 C11.3685922,22.0083532 11.2716602,21.9393823 11.1518932,21.9393823 L11.1518932,21.9393823 Z M10.4646699,21.7366638 C10.3449029,21.7366638 10.2478932,21.8056347 10.2478932,21.8904502 C10.2478932,21.9754211 10.3449029,22.0442367 10.4646699,22.0442367 C10.5842816,22.0442367 10.6812913,21.9753434 10.6812913,21.8904502 C10.6812913,21.8056347 10.5842816,21.7366638 10.4646699,21.7366638 L10.4646699,21.7366638 Z" id="github-2-circle-icon" fill="#000000" sketch:type="MSShapeGroup"></path>
    </g>
</svg>