<?xml version="1.0" encoding="UTF-8" standalone="no"?>
<svg width="32px" height="32px" viewBox="0 0 32 32" version="1.1" xmlns="http://www.w3.org/2000/svg" xmlns:xlink="http://www.w3.org/1999/xlink" xmlns:sketch="http://www.bohemiancoding.com/sketch/ns">
    <!-- Generator: Sketch 3.0 (7573) - http://www.bohemiancoding.com/sketch -->
    <title>Slice 2</title>
    <description>Created with Sketch.</description>
    <defs></defs>
    <g id="Page-1" stroke="none" stroke-width="1" fill="none" fill-rule="evenodd" sketch:type="MSPage">
        <path d="M16,0 C7.16341748,0 0,7.16341748 0,16 C0,24.8365825 7.16341748,32 16,32 C24.8365825,32 32,24.8365825 32,16 C32,7.16341748 24.8365825,0 16,0 L16,0 Z M24.0465243,13.2431845 C24.281165,18.4625243 20.3885825,24.2819417 13.4987961,24.2819417 C11.4031845,24.2819417 9.45250485,23.6674951 7.81040777,22.6146796 C9.7791068,22.8466796 11.7440777,22.3005825 13.3043107,21.0779029 C11.680466,21.0479223 10.3098252,19.9751456 9.83774757,18.5007379 C10.4191845,18.6119612 10.9912233,18.5794175 11.5134757,18.4373592 C9.72893204,18.0787573 8.49685437,16.4709903 8.53708738,14.7516893 C9.03728155,15.0297476 9.60970874,15.1966602 10.2180194,15.2159223 C8.56535922,14.1113786 8.09739806,11.9290874 9.0696699,10.2614369 C10.8998058,12.5065631 13.6343301,13.984 16.7184466,14.1387184 C16.177165,11.8174757 17.9380194,9.58205825 20.3333592,9.58205825 C21.400699,9.58205825 22.3652039,10.032699 23.0420194,10.7539417 C23.8873786,10.5874951 24.6814757,10.2786796 25.3986019,9.85343689 C25.1215534,10.72 24.5330485,11.447301 23.7669126,11.9064854 C24.5175922,11.816932 25.2328544,11.6173981 25.8982524,11.3221748 C25.4007767,12.0664078 24.7716505,12.7200777 24.0465243,13.2431845 L24.0465243,13.2431845 Z" id="twitter-4-icon" fill="#000000" sketch:type="MSShapeGroup"></path>
    </g>
</svg>